# xmcd
#
# Track frame offsets:
#	150
#	4252
#	30735
#	34961
#	64462
#	83494
#	93801
#	124395
#	127927
#	151856
#	162385
#	183903
#	209124
#	238103
#	259605
#	290048
#
# Disc length: 3946 seconds
#
# Revision: 0
# Processed by: cddbd v1.5.2PL0 Copyright (c) Steve Scherf et al.
# Submitted via: EasyCDDAExtractor 15.2.5.1
#
DISCID=e00f6810
DTITLE=Fred Hammond - God, Love and Romance (D2)
DYEAR=2012
DGENRE=Gospel
TTITLE0=Put On Your Good Shoes
TTITLE1=I Am Not Alone
TTITLE2=I See The Sunshine'n
TTITLE3=Better Love
TTITLE4=I Feel Good
TTITLE5=I Got A Good Woman
TTITLE6=Amazing Love
TTITLE7=Let's Take A Minute
TTITLE8=I Will Lift Him Up
TTITLE9=So You Just GOwn Leave?
TTITLE10=You Never Turned
TTITLE11=Call On Him (feat J Moss and Israel Houghton)
TTITLE12=He Lives Remix- Live
TTITLE13=You're Gonna Make It (feat James Fortune)
TTITLE14=Love Song To The Lamb
TTITLE15=Girls Night Out - Outtake
EXTD=
EXTT0=
EXTT1=
EXTT2=
EXTT3=
EXTT4=
EXTT5=
EXTT6=
EXTT7=
EXTT8=
EXTT9=
EXTT10=
EXTT11=
EXTT12=
EXTT13=
EXTT14=
EXTT15=
PLAYORDER=
